0
SECTION
2
HEADER
9
$INSUNITS
70
4
9
$ACADVER
1
AC1014
9
$HANDSEED
5
FFFF
0
ENDSEC
0
SECTION
2
TABLES
0
TABLE
2
VPORT
5
8
100
AcDbSymbolTable
0
ENDTAB
0
TABLE
2
LTYPE
5
5
100
AcDbSymbolTable
0
LTYPE
5
14
100
AcDbSymbolTableRecord
100
AcDbLinetypeTableRecord
2
BYBLOCK
70
0
0
LTYPE
5
15
100
AcDbSymbolTableRecord
100
AcDbLinetypeTableRecord
2
BYLAYER
70
0
0
ENDTAB
0
TABLE
2
LAYER
5
2
100
AcDbSymbolTable
70
2
0
LAYER
5
50
100
AcDbSymbolTableRecord
100
AcDbLayerTableRecord
2
0
70
0
6
CONTINUOUS
0
ENDTAB
0
TABLE
2
STYLE
5
3
100
AcDbSymbolTable
70
1
0
STYLE
5
11
100
AcDbSymbolTableRecord
100
AcDbTextStyleTableRecord
2
STANDARD
70
0
0
ENDTAB
0
TABLE
2
VIEW
5
6
100
AcDbSymbolTable
70
0
0
ENDTAB
0
TABLE
2
UCS
5
7
100
AcDbSymbolTable
70
0
0
ENDTAB
0
TABLE
2
APPID
5
9
100
AcDbSymbolTable
70
2
0
APPID
5
12
100
AcDbSymbolTableRecord
100
AcDbRegAppTableRecord
2
ACAD
70
0
0
ENDTAB
0
TABLE
2
DIMSTYLE
5
A
100
AcDbSymbolTable
70
1
0
ENDTAB
0
TABLE
2
BLOCK_RECORD
5
1
100
AcDbSymbolTable
70
1
0
BLOCK_RECORD
5
1F
100
AcDbSymbolTableRecord
100
AcDbBlockTableRecord
2
*MODEL_SPACE
0
BLOCK_RECORD
5
1B
100
AcDbSymbolTableRecord
100
AcDbBlockTableRecord
2
*PAPER_SPACE
0
ENDTAB
0
ENDSEC
0
SECTION
2
BLOCKS
0
BLOCK
5
20
100
AcDbEntity
100
AcDbBlockBegin
2
*MODEL_SPACE
0
ENDBLK
5
21
100
AcDbEntity
100
AcDbBlockEnd
0
BLOCK
5
1C
100
AcDbEntity
100
AcDbBlockBegin
2
*PAPER_SPACE
0
ENDBLK
5
1D
100
AcDbEntity
100
AcDbBlockEnd
0
ENDSEC
0
SECTION
2
ENTITIES
0
LWPOLYLINE
5
100
100
AcDbEntity
8
0
100
AcDbPolyline
90
100
70
1
43
0.0
10
36.596878572703019
20
8.180371552370362
10
36.011013212885359
20
10.462166476471111
10
35.283028835783448
20
12.702672009198441
10
34.415798463149287
20
14.893045898804287
10
33.412744657063783
20
17.024643740233017
10
32.277826012647871
20
19.089053090638934
10
31.015521535296049
20
21.07812666945491
10
29.630812964088374
20
22.984014511986636
10
28.129165111142214
20
24.799194949636956
10
26.516504294495519
20
26.51650429449554
10
24.799194949636934
20
28.129165111142239
10
22.984014511986601
20
29.630812964088399
10
21.078126669454882
20
31.015521535296074
10
19.089053090638906
20
32.277826012647893
10
17.024643740232982
20
33.412744657063797
10
14.893045898804253
20
34.415798463149294
10
12.702672009198412
20
35.283028835783455
10
10.462166476471078
20
36.011013212885366
10
8.1803715523703282
20
36.596878572703034
10
5.8662924390086353
20
37.038312772317667
10
3.5290617494442698
20
37.333573672615493
10
1.1779034654297935
20
37.481496013714931
10
-1.1779034654298322
20
37.481496013714931
10
-3.529061749444304
20
37.333573672615501
10
-5.8662924390086761
20
37.03831277231766
10
-8.1803715523703673
20
36.596878572703019
10
-10.462166476471113
20
36.011013212885359
10
-12.702672009198444
20
35.283028835783441
10
-14.893045898804294
20
34.415798463149287
10
-17.024643740233017
20
33.412744657063783
10
-19.089053090638938
20
32.277826012647871
10
-21.07812666945491
20
31.015521535296049
10
-22.984014511986636
20
29.630812964088374
10
-24.799194949636956
20
28.129165111142211
10
-26.516504294495547
20
26.516504294495512
10
-28.129165111142235
20
24.799194949636934
10
-29.630812964088395
20
22.984014511986604
10
-31.015521535296074
20
21.078126669454882
10
-32.277826012647893
20
19.089053090638899
10
-33.412744657063811
20
17.024643740232978
10
-34.415798463149294
20
14.893045898804258
10
-35.283028835783455
20
12.702672009198412
10
-36.011013212885366
20
10.462166476471078
10
-36.596878572703027
20
8.1803715523703211
10
-37.038312772317667
20
5.86629243900863
10
-37.333573672615501
20
3.5290617494442582
10
-37.481496013714931
20
1.1779034654297955
10
-37.481496013714931
20
-1.1779034654298313
10
-37.333573672615493
20
-3.5290617494443097
10
-37.038312772317653
20
-5.8662924390086824
10
-36.596878572703012
20
-8.1803715523703726
10
-36.011013212885359
20
-10.462166476471111
10
-35.283028835783448
20
-12.702672009198441
10
-34.415798463149287
20
-14.893045898804292
10
-33.412744657063783
20
-17.024643740233024
10
-32.277826012647864
20
-19.089053090638942
10
-31.015521535296038
20
-21.078126669454925
10
-29.630812964088374
20
-22.984014511986636
10
-28.129165111142211
20
-24.799194949636956
10
-26.516504294495512
20
-26.516504294495547
10
-24.79919494963692
20
-28.129165111142246
10
-22.984014511986601
20
-29.630812964088406
10
-21.078126669454882
20
-31.015521535296074
10
-19.089053090638902
20
-32.277826012647893
10
-17.024643740232982
20
-33.412744657063804
10
-14.893045898804258
20
-34.415798463149294
10
-12.702672009198395
20
-35.283028835783462
10
-10.462166476471085
20
-36.011013212885359
10
-8.1803715523703069
20
-36.596878572703034
10
-5.8662924390086326
20
-37.038312772317667
10
-3.5290617494442738
20
-37.333573672615493
10
-1.1779034654297809
20
-37.481496013714931
10
1.1779034654298279
20
-37.481496013714931
10
3.529061749444323
20
-37.333573672615493
10
5.8662924390086797
20
-37.038312772317653
10
8.1803715523703548
20
-36.596878572703019
10
10.462166476471124
20
-36.011013212885352
10
12.702672009198441
20
-35.283028835783448
10
14.893045898804305
20
-34.415798463149279
10
17.024643740233024
20
-33.412744657063783
10
19.089053090638931
20
-32.277826012647878
10
21.078126669454921
20
-31.015521535296038
10
22.984014511986629
20
-29.630812964088378
10
24.79919494963697
20
-28.129165111142207
10
26.51650429449554
20
-26.516504294495519
10
28.129165111142257
20
-24.799194949636906
10
29.630812964088406
20
-22.984014511986601
10
31.01552153529607
20
-21.078126669454882
10
32.277826012647907
20
-19.089053090638885
10
33.412744657063804
20
-17.024643740232982
10
34.415798463149308
20
-14.893045898804228
10
35.283028835783462
20
-12.702672009198395
10
36.011013212885359
20
-10.462166476471085
10
36.596878572703034
20
-8.1803715523703087
10
37.038312772317667
20
-5.8662924390086335
10
37.333573672615501
20
-3.5290617494442449
10
37.481496013714931
20
-1.1779034654297829
10
37.481496013714931
20
1.1779034654298259
10
37.333573672615493
20
3.5290617494443213
10
37.03831277231766
20
5.866292439008677
0
ENDSEC
0
SECTION
2
OBJECTS
0
DICTIONARY
5
C
100
AcDbDictionary
3
ACAD_GROUP
350
D
3
ACAD_MLINESTYLE
350
17
0
DICTIONARY
5
D
100
AcDbDictionary
0
DICTIONARY
5
1A
330
C
100
AcDbDictionary
0
DICTIONARY
5
17
100
AcDbDictionary
0
ENDSEC
0
EOF
