0
SECTION
2
HEADER
9
$INSUNITS
70
4
9
$ACADVER
1
AC1014
9
$HANDSEED
5
FFFF
0
ENDSEC
0
SECTION
2
TABLES
0
TABLE
2
VPORT
5
8
100
AcDbSymbolTable
0
ENDTAB
0
TABLE
2
LTYPE
5
5
100
AcDbSymbolTable
0
LTYPE
5
14
100
AcDbSymbolTableRecord
100
AcDbLinetypeTableRecord
2
BYBLOCK
70
0
0
LTYPE
5
15
100
AcDbSymbolTableRecord
100
AcDbLinetypeTableRecord
2
BYLAYER
70
0
0
ENDTAB
0
TABLE
2
LAYER
5
2
100
AcDbSymbolTable
70
2
0
LAYER
5
50
100
AcDbSymbolTableRecord
100
AcDbLayerTableRecord
2
0
70
0
6
CONTINUOUS
0
ENDTAB
0
TABLE
2
STYLE
5
3
100
AcDbSymbolTable
70
1
0
STYLE
5
11
100
AcDbSymbolTableRecord
100
AcDbTextStyleTableRecord
2
STANDARD
70
0
0
ENDTAB
0
TABLE
2
VIEW
5
6
100
AcDbSymbolTable
70
0
0
ENDTAB
0
TABLE
2
UCS
5
7
100
AcDbSymbolTable
70
0
0
ENDTAB
0
TABLE
2
APPID
5
9
100
AcDbSymbolTable
70
2
0
APPID
5
12
100
AcDbSymbolTableRecord
100
AcDbRegAppTableRecord
2
ACAD
70
0
0
ENDTAB
0
TABLE
2
DIMSTYLE
5
A
100
AcDbSymbolTable
70
1
0
ENDTAB
0
TABLE
2
BLOCK_RECORD
5
1
100
AcDbSymbolTable
70
1
0
BLOCK_RECORD
5
1F
100
AcDbSymbolTableRecord
100
AcDbBlockTableRecord
2
*MODEL_SPACE
0
BLOCK_RECORD
5
1B
100
AcDbSymbolTableRecord
100
AcDbBlockTableRecord
2
*PAPER_SPACE
0
ENDTAB
0
ENDSEC
0
SECTION
2
BLOCKS
0
BLOCK
5
20
100
AcDbEntity
100
AcDbBlockBegin
2
*MODEL_SPACE
0
ENDBLK
5
21
100
AcDbEntity
100
AcDbBlockEnd
0
BLOCK
5
1C
100
AcDbEntity
100
AcDbBlockBegin
2
*PAPER_SPACE
0
ENDBLK
5
1D
100
AcDbEntity
100
AcDbBlockEnd
0
ENDSEC
0
SECTION
2
ENTITIES
0
CIRCLE
5
100
100
AcDbEntity
8
0
100
AcDbCircle
10
-10.999955285368744
20
-24.304785267798053
30
0
40
1.0499999999999998
210
0
220
-0
230
1
0
CIRCLE
5
101
100
AcDbEntity
8
0
100
AcDbCircle
10
-13.999955285368738
20
-39.30478526779806
30
0
40
1.0499999999999998
210
0
220
-0
230
1
0
CIRCLE
5
102
100
AcDbEntity
8
0
100
AcDbCircle
10
11.000044714631258
20
-24.304785267798046
30
0
40
1.0500000000000009
210
0
220
-0
230
1
0
CIRCLE
5
103
100
AcDbEntity
8
0
100
AcDbCircle
10
14.000044714631263
20
-39.304785267798053
30
0
40
1.0499999999999998
210
0
220
-0
230
1
0
CIRCLE
5
104
100
AcDbEntity
8
0
100
AcDbCircle
10
-30.052038200428264
20
-65.052038200428257
30
0
40
1.0500000000000043
210
0
220
-0
230
1
0
LWPOLYLINE
5
105
100
AcDbEntity
8
0
100
AcDbPolyline
90
24
70
1
43
0.0
10
-25.090999059240978
20
-66.151914326557332
42
0.35263983122202236
10
25.090999059240975
20
-66.151914326557332
42
-0.38311008214355879
10
27.759762574576136
20
-66.295296480512121
10
28.284271247460268
20
-66.81980515339626
42
1.0000000105367119
10
31.819805116143346
20
-63.284271210207393
10
31.295296480512107
20
-62.759762574576129
42
-0.38311008214355652
10
31.151914326557339
20
-60.090999059240986
42
0.35263983122202225
10
31.15191432655735
20
-9.9090009407590323
42
-0.38311008214355652
10
31.295296480512121
20
-7.2402374254238868
10
31.819805153396267
20
-6.7157287525397313
42
0.99999999999999989
10
28.284271247460268
20
-3.1801948466037508
10
27.759762574576122
20
-3.7047035194878926
42
-0.38311008214355624
10
25.090999059240978
20
-3.8480856734426627
42
0.35263983122202225
10
-25.090999059240964
20
-3.8480856734426516
42
-0.38311008214355835
10
-27.759762574576122
20
-3.7047035194878841
10
-28.284271247460275
20
-3.1801948466037389
42
0.99999999999999989
10
-31.819805153396263
20
-6.7157287525397287
10
-31.295296480512107
20
-7.2402374254238699
42
-0.38311008214355657
10
-31.151914326557339
20
-9.9090009407590163
42
0.35263983122202236
10
-31.151914326557343
20
-60.090999059240986
42
-0.38311008214355702
10
-31.295296480512107
20
-62.759762574576129
10
-31.819805153396263
20
-63.284271247460282
42
0.99999998946328772
10
-28.284271247460275
20
-66.819805153396246
10
-27.759762574576115
20
-66.295296480512107
42
-0.38311008214355469
0
CIRCLE
5
106
100
AcDbEntity
8
0
100
AcDbCircle
10
30.05203820042826
20
-65.052038200428285
30
0
40
1.0499999999999998
210
0
220
-0
230
1
0
CIRCLE
5
107
100
AcDbEntity
8
0
100
AcDbCircle
10
-30.052038200428267
20
-4.9479617995717344
30
0
40
1.0499999999999998
210
0
220
0
230
1
0
CIRCLE
5
108
100
AcDbEntity
8
0
100
AcDbCircle
10
30.052038200428267
20
-4.9479617995717406
30
0
40
1.0499999999999998
210
0
220
-0
230
1
0
ENDSEC
0
SECTION
2
OBJECTS
0
DICTIONARY
5
C
100
AcDbDictionary
3
ACAD_GROUP
350
D
3
ACAD_MLINESTYLE
350
17
0
DICTIONARY
5
D
100
AcDbDictionary
0
DICTIONARY
5
1A
330
C
100
AcDbDictionary
0
DICTIONARY
5
17
100
AcDbDictionary
0
ENDSEC
0
EOF
