0
SECTION
2
HEADER
9
$INSUNITS
70
4
9
$ACADVER
1
AC1014
9
$HANDSEED
5
FFFF
0
ENDSEC
0
SECTION
2
TABLES
0
TABLE
2
VPORT
5
8
100
AcDbSymbolTable
0
ENDTAB
0
TABLE
2
LTYPE
5
5
100
AcDbSymbolTable
0
LTYPE
5
14
100
AcDbSymbolTableRecord
100
AcDbLinetypeTableRecord
2
BYBLOCK
70
0
0
LTYPE
5
15
100
AcDbSymbolTableRecord
100
AcDbLinetypeTableRecord
2
BYLAYER
70
0
0
ENDTAB
0
TABLE
2
LAYER
5
2
100
AcDbSymbolTable
70
2
0
LAYER
5
50
100
AcDbSymbolTableRecord
100
AcDbLayerTableRecord
2
0
70
0
6
CONTINUOUS
0
ENDTAB
0
TABLE
2
STYLE
5
3
100
AcDbSymbolTable
70
1
0
STYLE
5
11
100
AcDbSymbolTableRecord
100
AcDbTextStyleTableRecord
2
STANDARD
70
0
0
ENDTAB
0
TABLE
2
VIEW
5
6
100
AcDbSymbolTable
70
0
0
ENDTAB
0
TABLE
2
UCS
5
7
100
AcDbSymbolTable
70
0
0
ENDTAB
0
TABLE
2
APPID
5
9
100
AcDbSymbolTable
70
2
0
APPID
5
12
100
AcDbSymbolTableRecord
100
AcDbRegAppTableRecord
2
ACAD
70
0
0
ENDTAB
0
TABLE
2
DIMSTYLE
5
A
100
AcDbSymbolTable
70
1
0
ENDTAB
0
TABLE
2
BLOCK_RECORD
5
1
100
AcDbSymbolTable
70
1
0
BLOCK_RECORD
5
1F
100
AcDbSymbolTableRecord
100
AcDbBlockTableRecord
2
*MODEL_SPACE
0
BLOCK_RECORD
5
1B
100
AcDbSymbolTableRecord
100
AcDbBlockTableRecord
2
*PAPER_SPACE
0
ENDTAB
0
ENDSEC
0
SECTION
2
BLOCKS
0
BLOCK
5
20
100
AcDbEntity
100
AcDbBlockBegin
2
*MODEL_SPACE
0
ENDBLK
5
21
100
AcDbEntity
100
AcDbBlockEnd
0
BLOCK
5
1C
100
AcDbEntity
100
AcDbBlockBegin
2
*PAPER_SPACE
0
ENDBLK
5
1D
100
AcDbEntity
100
AcDbBlockEnd
0
ENDSEC
0
SECTION
2
ENTITIES
0
CIRCLE
5
100
100
AcDbEntity
8
0
100
AcDbCircle
10
56.999999999999922
20
-27.717144417286885
30
0
40
1.1000000000000032
210
0
220
0
230
1
0
CIRCLE
5
101
100
AcDbEntity
8
0
100
AcDbCircle
10
-56.999999999999964
20
-27.717144417286885
30
0
40
1.1000000000000032
210
0
220
0
230
1
0
LWPOLYLINE
5
102
100
AcDbEntity
8
0
100
AcDbPolyline
90
16
70
1
43
0.0
10
59.999999999999986
20
-27.71714441728685
42
0.20941840132724274
10
59.034038800203447
20
-25.511994499647052
10
25.190788890789733
20
5.7051499176398224
42
0.18844840364268925
10
23.156750090586264
20
6.5000000000000107
10
-23.156750090586293
20
6.4999999999999769
42
0.18844840364269175
10
-25.190788890789754
20
5.7051499176397797
10
-59.034038800203462
20
-25.511994499647059
42
0.2094184013272459
10
-59.999999999999993
20
-27.717144417286871
10
-59.999999999999986
20
-56.257359312880752
42
0.19891236737965903
10
-59.121320343559631
20
-58.378679656440397
10
-40.878679656440333
20
-76.621320343559674
42
0.19891236737966184
10
-38.757359312880695
20
-77.500000000000028
10
38.75735931288073
20
-77.499999999999986
42
0.19891236737965104
10
40.878679656440376
20
-76.621320343559631
10
59.12132034355966
20
-58.378679656440298
42
0.19891236737965826
10
60.000000000000007
20
-56.257359312880659
0
CIRCLE
5
103
100
AcDbEntity
8
0
100
AcDbCircle
10
30.052038200428267
20
-4.9479617995717406
30
0
40
1.0499999999999998
210
0
220
-0
230
1
0
CIRCLE
5
104
100
AcDbEntity
8
0
100
AcDbCircle
10
30.05203820042826
20
-65.052038200428271
30
0
40
1.0499999999999998
210
0
220
-0
230
1
0
CIRCLE
5
105
100
AcDbEntity
8
0
100
AcDbCircle
10
-30.052038200428264
20
-65.052038200428257
30
0
40
1.0500000000000043
210
0
220
-0
230
1
0
CIRCLE
5
106
100
AcDbEntity
8
0
100
AcDbCircle
10
-30.052038200428264
20
-4.9479617995717344
30
0
40
1.0499999999999998
210
0
220
0
230
1
0
LWPOLYLINE
5
107
100
AcDbEntity
8
0
100
AcDbPolyline
90
8
70
1
43
0.0
10
54.414213562373099
20
-56.014718625761375
42
0.19891236737965798
10
55
20
-54.600505063388283
10
55
20
-40.743713343790951
42
0.7168724251341132
10
52.847430804826146
20
-40.01391067977427
10
29.436995618447188
20
-70.570197335983309
42
0.62158114129557074
10
30.389564813621043
20
-72.499999999999986
10
37.100505063388347
20
-72.499999999999986
42
0.19891236737965845
10
38.514718625761446
20
-71.914213562373078
0
CIRCLE
5
108
100
AcDbEntity
8
0
100
AcDbCircle
10
0
20
-35
30
0
40
37.999999999999993
210
0
220
0
230
1
0
CIRCLE
5
109
100
AcDbEntity
8
0
100
AcDbCircle
10
-56.999999999999993
20
-56.257359312880766
30
0
40
1.0500000000000043
210
0
220
-0
230
1
0
CIRCLE
5
110
100
AcDbEntity
8
0
100
AcDbCircle
10
57.000000000000021
20
-56.257359312880666
30
0
40
1.0500000000000043
210
0
220
-0
230
1
0
LWPOLYLINE
5
111
100
AcDbEntity
8
0
100
AcDbPolyline
90
8
70
1
43
0.0
10
-30.389564813621046
20
-72.499999999999986
10
-37.100505063388347
20
-72.499999999999986
42
-0.19891236737965881
10
-38.514718625761446
20
-71.914213562373078
10
-54.414213562373099
20
-56.014718625761375
42
-0.19891236737965798
10
-55.000000000000007
20
-54.600505063388283
10
-55
20
-40.743713343790951
42
-0.7168724251341132
10
-52.847430804826146
20
-40.01391067977427
10
-29.436995618447188
20
-70.570197335983309
42
-0.62158114129557207
0
LWPOLYLINE
5
112
100
AcDbEntity
8
0
100
AcDbPolyline
90
6
70
1
43
0.0
10
-53.960677029592986
20
-28.995016333976558
10
-41.929854043504236
20
-17.897738749205377
42
-0.79698735042549451
10
-39.999960554461147
20
-19.220166171928412
42
0.14590149251433712
10
-42.110407763832157
20
-43.701353800632546
42
-0.79698735042549518
10
-44.238151129159476
20
-44.673984942806406
10
-54.192266488080428
20
-31.681454052430897
42
-0.38771711573755574
0
LWPOLYLINE
5
113
100
AcDbEntity
8
0
100
AcDbPolyline
90
6
70
1
43
0.0
10
54.192266488080428
20
-31.681454052430894
42
0.38771711573755491
10
53.960677029592986
20
-28.995016333976558
10
41.929854043504228
20
-17.89773874920537
42
0.79698735042549107
10
39.99996055446114
20
-19.220166171928405
42
-0.14590149251433707
10
42.110407763832171
20
-43.701353800632546
42
0.7969873504254914
10
44.238151129159455
20
-44.673984942806399
0
ENDSEC
0
SECTION
2
OBJECTS
0
DICTIONARY
5
C
100
AcDbDictionary
3
ACAD_GROUP
350
D
3
ACAD_MLINESTYLE
350
17
0
DICTIONARY
5
D
100
AcDbDictionary
0
DICTIONARY
5
1A
330
C
100
AcDbDictionary
0
DICTIONARY
5
17
100
AcDbDictionary
0
ENDSEC
0
EOF
