0
SECTION
2
HEADER
9
$INSUNITS
70
4
9
$ACADVER
1
AC1014
9
$HANDSEED
5
FFFF
0
ENDSEC
0
SECTION
2
TABLES
0
TABLE
2
VPORT
5
8
100
AcDbSymbolTable
0
ENDTAB
0
TABLE
2
LTYPE
5
5
100
AcDbSymbolTable
0
LTYPE
5
14
100
AcDbSymbolTableRecord
100
AcDbLinetypeTableRecord
2
BYBLOCK
70
0
0
LTYPE
5
15
100
AcDbSymbolTableRecord
100
AcDbLinetypeTableRecord
2
BYLAYER
70
0
0
ENDTAB
0
TABLE
2
LAYER
5
2
100
AcDbSymbolTable
70
2
0
LAYER
5
50
100
AcDbSymbolTableRecord
100
AcDbLayerTableRecord
2
0
70
0
6
CONTINUOUS
0
ENDTAB
0
TABLE
2
STYLE
5
3
100
AcDbSymbolTable
70
1
0
STYLE
5
11
100
AcDbSymbolTableRecord
100
AcDbTextStyleTableRecord
2
STANDARD
70
0
0
ENDTAB
0
TABLE
2
VIEW
5
6
100
AcDbSymbolTable
70
0
0
ENDTAB
0
TABLE
2
UCS
5
7
100
AcDbSymbolTable
70
0
0
ENDTAB
0
TABLE
2
APPID
5
9
100
AcDbSymbolTable
70
2
0
APPID
5
12
100
AcDbSymbolTableRecord
100
AcDbRegAppTableRecord
2
ACAD
70
0
0
ENDTAB
0
TABLE
2
DIMSTYLE
5
A
100
AcDbSymbolTable
70
1
0
ENDTAB
0
TABLE
2
BLOCK_RECORD
5
1
100
AcDbSymbolTable
70
1
0
BLOCK_RECORD
5
1F
100
AcDbSymbolTableRecord
100
AcDbBlockTableRecord
2
*MODEL_SPACE
0
BLOCK_RECORD
5
1B
100
AcDbSymbolTableRecord
100
AcDbBlockTableRecord
2
*PAPER_SPACE
0
ENDTAB
0
ENDSEC
0
SECTION
2
BLOCKS
0
BLOCK
5
20
100
AcDbEntity
100
AcDbBlockBegin
2
*MODEL_SPACE
0
ENDBLK
5
21
100
AcDbEntity
100
AcDbBlockEnd
0
BLOCK
5
1C
100
AcDbEntity
100
AcDbBlockBegin
2
*PAPER_SPACE
0
ENDBLK
5
1D
100
AcDbEntity
100
AcDbBlockEnd
0
ENDSEC
0
SECTION
2
ENTITIES
0
CIRCLE
5
100
100
AcDbEntity
8
0
100
AcDbCircle
10
-25.000000000000004
20
27
30
0
40
1.0499999999999998
210
0
220
0
230
1
0
CIRCLE
5
101
100
AcDbEntity
8
0
100
AcDbCircle
10
25.000000000000004
20
27
30
0
40
1.0499999999999998
210
0
220
0
230
1
0
CIRCLE
5
102
100
AcDbEntity
8
0
100
AcDbCircle
10
-25.000000000000004
20
9.9999999999999982
30
0
40
1.0499999999999998
210
0
220
0
230
1
0
CIRCLE
5
103
100
AcDbEntity
8
0
100
AcDbCircle
10
25.000000000000004
20
9.9999999999999982
30
0
40
1.0499999999999998
210
0
220
0
230
1
0
CIRCLE
5
104
100
AcDbEntity
8
0
100
AcDbCircle
10
61.000000000000014
20
13.267949192431134
30
0
40
1.0500000000000043
210
0
220
0
230
1
0
CIRCLE
5
105
100
AcDbEntity
8
0
100
AcDbCircle
10
-61.000000000000021
20
13.267949192431143
30
0
40
1.0499999999999954
210
0
220
0
230
1
0
CIRCLE
5
106
100
AcDbEntity
8
0
100
AcDbCircle
10
61
20
-13.267949192431104
30
0
40
1.0499999999999954
210
0
220
0
230
1
0
CIRCLE
5
107
100
AcDbEntity
8
0
100
AcDbCircle
10
-61.000000000000007
20
-13.267949192431111
30
0
40
1.0499999999999954
210
0
220
0
230
1
0
CIRCLE
5
108
100
AcDbEntity
8
0
100
AcDbCircle
10
-8.1949999999999985
20
-3.5000000000000036
30
0
40
1.0999999999999999
210
0
220
0
230
1
0
CIRCLE
5
109
100
AcDbEntity
8
0
100
AcDbCircle
10
19.775000000000006
20
-3.5000000000000027
30
0
40
1.1000000000000032
210
0
220
0
230
1
0
CIRCLE
5
110
100
AcDbEntity
8
0
100
AcDbCircle
10
-8.1949999999999967
20
3.4999999999999973
30
0
40
1.0999999999999999
210
0
220
0
230
1
0
CIRCLE
5
111
100
AcDbEntity
8
0
100
AcDbCircle
10
19.775000000000013
20
3.4999999999999987
30
0
40
1.100000000000001
210
0
220
0
230
1
0
CIRCLE
5
112
100
AcDbEntity
8
0
100
AcDbCircle
10
-30.000000000000039
20
22.000000000000007
30
0
40
1.1000000000000032
210
0
220
0
230
1
0
CIRCLE
5
113
100
AcDbEntity
8
0
100
AcDbCircle
10
29.999999999999972
20
22
30
0
40
1.1000000000000032
210
0
220
0
230
1
0
CIRCLE
5
114
100
AcDbEntity
8
0
100
AcDbCircle
10
-30
20
5.9999999999999964
30
0
40
1.0999999999999985
210
0
220
0
230
1
0
CIRCLE
5
115
100
AcDbEntity
8
0
100
AcDbCircle
10
30.000000000000028
20
5.9999999999999973
30
0
40
1.0999999999999985
210
0
220
0
230
1
0
CIRCLE
5
116
100
AcDbEntity
8
0
100
AcDbCircle
10
24.000000000000004
20
58.452994805477694
30
0
40
1.0499999999999998
210
0
220
0
230
1
0
LWPOLYLINE
5
117
100
AcDbEntity
8
0
100
AcDbPolyline
90
8
70
1
43
0.0
10
42.880583732613012
20
6.3000000000000353
10
51.190861281296051
20
6.3000000000000327
42
-0.41421356237309537
10
52.190861281296044
20
5.3000000000000345
10
52.190861281296037
20
-5.2999999999999661
42
-0.41421356237309509
10
51.190861281296037
20
-6.2999999999999652
10
42.880583732613061
20
-6.2999999999999643
42
-0.41421356237309409
10
41.880583732613061
20
-5.2999999999999714
10
41.880583732613005
20
5.3000000000000309
42
-0.41421356237309598
0
LWPOLYLINE
5
118
100
AcDbEntity
8
0
100
AcDbPolyline
90
8
70
1
43
0.0
10
-41.880583732613019
20
5.3000000000000309
42
0.41421356237309598
10
-42.880583732613012
20
6.3000000000000309
10
-51.190861281296051
20
6.3000000000000353
42
0.41421356237309637
10
-52.190861281296037
20
5.3000000000000336
10
-52.190861281296037
20
-5.299999999999967
42
0.4142135623730957
10
-51.190861281296037
20
-6.2999999999999652
10
-42.880583732613061
20
-6.2999999999999678
42
0.41421356237309509
10
-41.880583732613061
20
-5.2999999999999714
0
LWPOLYLINE
5
119
100
AcDbEntity
8
0
100
AcDbPolyline
90
59
70
1
43
0.0
10
45
20
-54.000000789761543
42
0.41421356237309509
10
44
20
-53.000000789761543
10
38.000000566244125
20
-53.000000789761543
10
34.999999999999957
20
-50.000000223517375
10
34.999999999999986
20
-32.897858344878365
42
-0.26794919243112336
10
35.999999999999993
20
-31.165807537309487
10
62.500000000000007
20
-15.866025403784425
42
0.2679491924311222
10
64
20
-13.2679491924311
10
64
20
13.267949192431123
42
0.26794919243112397
10
62.500000000000007
20
15.866025403784448
10
38.500000000000007
20
29.722431864335416
42
-0.26794919243112353
10
37
20
32.320508075688743
10
37
20
50.779268219110776
42
-0.19891236737965881
10
37.585786437626915
20
52.193481781483875
10
39.414213562373092
20
54.021908906230038
42
0.19891236737966839
10
40
20
55.436122468603145
10
40
20
58.452994805477701
42
0.41421356237309309
10
37.999999999999993
20
60.452994805477694
10
24.000000000000004
20
60.452994805477694
42
0.41421356237309509
10
22
20
58.452994805477694
10
22
20
9.0000000894069654
42
-0.38574751278513636
10
19.294000000000008
20
6.0144408453121532
42
0.38574751278513686
10
17.490000000000016
20
4.0240680159156108
10
17.490000000000016
20
-4.2000000000000082
42
-0.41421356237309509
10
15.490000000000013
20
-6.2000000000000091
10
-3.9100000000000001
20
-6.2000000000000108
42
-0.41421356237309515
10
-5.910000000000001
20
-4.2000000000000099
10
-5.9100000000000019
20
4.0000000894069672
42
0.41421356237309476
10
-7.9099999999999993
20
6.0000000894069672
10
-19.000000000000004
20
6.0000000894069672
42
-0.41421356237309509
10
-22
20
9.0000000894069654
10
-22
20
26.999999999999996
42
0.41421356237309509
10
-25
20
30.000000000000004
10
-37.215390309173429
20
29.999999999999996
42
0.13165249758739245
10
-38.715390309173429
20
29.598076211353312
10
-62.5
20
15.866025403784448
42
0.2679491924311253
10
-64
20
13.267949192431129
10
-64
20
-13.267949192431105
42
0.2679491924311227
10
-62.500000000000007
20
-15.866025403784423
10
-35.999999999999972
20
-31.16580753730949
42
-0.26794919243112453
10
-34.999999999999964
20
-32.897858344878379
10
-34.999999999999964
20
-49.585786661144276
42
-0.19891236737966031
10
-35.292893218813418
20
-50.292893442330836
10
-37.707107347430679
20
-52.707107570948097
42
-0.19891236737965798
10
-38.414214128617218
20
-53.000000789761543
10
-44
20
-53.000000789761543
42
0.41421356237309509
10
-45
20
-54.000000789761543
10
-45
20
-67
42
0.41421356237309509
10
-44
20
-68
10
-24.75
20
-68
42
0.41421356237309243
10
-23.749999999999996
20
-67
10
-23.749999999999996
20
-60.749999999999993
42
-0.41421356237309509
10
-22.75
20
-59.75
10
22.750000000000007
20
-59.75
42
-0.4142135623730937
10
23.750000000000004
20
-60.749999999999993
10
23.75
20
-67
42
0.41421356237309243
10
24.75
20
-67.999999999999986
10
44
20
-68
42
0.41421356237309509
10
45
20
-67
0
CIRCLE
5
120
100
AcDbEntity
8
0
100
AcDbCircle
10
-26.750000000000004
20
-62.5
30
0
40
1.0499999999999998
210
0
220
0
230
1
0
CIRCLE
5
121
100
AcDbEntity
8
0
100
AcDbCircle
10
26.750000000000004
20
-62.5
30
0
40
1.0499999999999998
210
0
220
0
230
1
0
ENDSEC
0
SECTION
2
OBJECTS
0
DICTIONARY
5
C
100
AcDbDictionary
3
ACAD_GROUP
350
D
3
ACAD_MLINESTYLE
350
17
0
DICTIONARY
5
D
100
AcDbDictionary
0
DICTIONARY
5
1A
330
C
100
AcDbDictionary
0
DICTIONARY
5
17
100
AcDbDictionary
0
ENDSEC
0
EOF
